<svg xmlns:dc="http://purl.org/dc/elements/1.1/" xmlns:cc="http://creativecommons.org/ns#" xmlns:rdf="http://www.w3.org/1999/02/22-rdf-syntax-ns#" xmlns:svg="http://www.w3.org/2000/svg" xmlns="http://www.w3.org/2000/svg" xmlns:sodipodi="http://sodipodi.sourceforge.net/DTD/sodipodi-0.dtd" xmlns:inkscape="http://www.inkscape.org/namespaces/inkscape" version="1.1" xml:space="preserve" inkscape:version="0.91 r13725" sodipodi:docname="network.svg" width="300" height="62"><rect id="backgroundrect" width="100%" height="100%" x="0" y="0" fill="none" stroke="none"/><metadata id="metadata51"><rdf:RDF><cc:Work rdf:about=""><dc:format>image/svg+xml</dc:format><dc:type rdf:resource="http://purl.org/dc/dcmitype/StillImage"/></cc:Work></rdf:RDF></metadata><defs id="defs49"><filter style="color-interpolation-filters:sRGB;" inkscape:label="Greyscale" id="filter4269"><feColorMatrix values="0.21 0.72 0.072 -0.05 0 0.21 0.72 0.072 -0.05 0 0.21 0.72 0.072 -0.05 0 0 0 0 1 0 " id="feColorMatrix4271"/></filter></defs><sodipodi:namedview pagecolor="#ffffff" bordercolor="#666666" borderopacity="1" objecttolerance="10" gridtolerance="10" guidetolerance="10" inkscape:pageopacity="0" inkscape:pageshadow="2" inkscape:window-width="1280" inkscape:window-height="751" id="namedview47" showgrid="false" inkscape:zoom="4.12" inkscape:cx="117.16913" inkscape:cy="28.862827" inkscape:window-x="0" inkscape:window-y="1" inkscape:window-maximized="1" inkscape:current-layer="layer1"/><g class="currentLayer"><title>Layer 1</title><g id="bgd"/><g id="hex" display="none"/><g id="joiners" display="none"/><g inkscape:groupmode="layer" id="layer1" inkscape:label="Layer 1" class="selected" fill="#000000" fill-opacity="1"><g style="filter:url(#filter4269)" id="Layer_4" fill="#000000" fill-opacity="1"><g id="g7" fill="#000000" fill-opacity="1"><polygon fill="#000000" points="115.86814439296722,36.18742370605469 115.86814439296722,45.147430419921875 123.62713944911957,49.62742614746094 131.38714158535004,45.147430419921875 131.38714158535004,36.18742370605469 123.62713944911957,31.707427978515625 " id="polygon9" fill-opacity="1"/><polygon fill="#000000" points="80.33414018154144,35.621429443359375 80.33414018154144,44.5814208984375 88.09414231777191,49.061431884765625 95.85414445400238,44.5814208984375 95.85414445400238,35.621429443359375 88.09414231777191,31.142425537109375 " id="polygon11" fill-opacity="1"/><polygon fill="#000000" points="185.62813889980316,35.88142395019531 185.62813889980316,44.8414306640625 193.38814866542816,49.32142639160156 201.14915025234222,44.8414306640625 201.14915025234222,35.88142395019531 193.38814866542816,31.40142822265625 " id="polygon13" fill-opacity="1"/><polygon fill="#000000" points="151.2451432943344,35.42742919921875 151.2451432943344,44.387420654296875 159.00513780117035,48.867431640625 166.76514756679535,44.387420654296875 166.76514756679535,35.42742919921875 159.00513780117035,30.94842529296875 " id="polygon15" fill-opacity="1"/><polygon fill="#000000" points="168.23214280605316,5.121429443359375 168.23214280605316,14.080429077148438 175.9921373128891,18.5604248046875 183.75113999843597,14.080429077148438 183.75113999843597,5.121429443359375 175.9921373128891,0.6414260864257812 " id="polygon17" fill-opacity="1"/><polygon fill="#000000" points="124.73014390468597,20.718429565429688 124.73014390468597,29.678421020507812 132.4901384115219,34.15843200683594 140.2491410970688,29.678421020507812 140.2491410970688,20.718429565429688 132.4901384115219,16.238433837890625 " id="polygon19" fill-opacity="1"/><polygon fill="#000000" points="148.97713792324066,14.123428344726562 148.97713792324066,5.163429260253906 141.2181352376938,0.6834259033203125 133.45814073085785,5.163429260253906 133.45814073085785,14.123428344726562 141.2181352376938,18.603424072265625 " id="polygon21" fill-opacity="1"/><polygon fill="#000000" points="113.55114305019379,14.317428588867188 113.55114305019379,5.357429504394531 105.79014146327972,0.8784255981445312 98.03114640712738,5.357429504394531 98.03114640712738,14.317428588867188 105.79014146327972,18.79742431640625 " id="polygon23" fill-opacity="1"/><polygon fill="#000000" points="27.890143752098083,5.3154296875 27.890143752098083,14.275421142578125 35.65014207363129,18.754425048828125 43.410144209861755,14.275421142578125 43.410144209861755,5.3154296875 35.65014207363129,0.8354263305664062 " id="polygon25" fill-opacity="1"/><polygon fill="#000000" points="271.8641313314438,14.080429077148438 271.8641313314438,5.120429992675781 264.1051286458969,0.6414260864257812 256.34615647792816,5.120429992675781 256.34615647792816,14.080429077148438 264.1051286458969,18.5604248046875 " id="polygon27" fill-opacity="1"/><polygon fill="#000000" points="78.43213975429535,14.274429321289062 78.43213975429535,5.3154296875 70.673144698143,0.8354263305664062 62.91314256191254,5.3154296875 62.91314256191254,14.274429321289062 70.673144698143,18.754425048828125 " id="polygon29" fill-opacity="1"/><polygon fill="#000000" points="19.150142073631287,20.442428588867188 19.150142073631287,29.402420043945312 26.910142302513123,33.88243103027344 34.669143080711365,29.402420043945312 34.669143080711365,20.442428588867188 26.910142302513123,15.963424682617188 " id="polygon31" fill-opacity="1"/><polygon fill="#000000" points="45.34714448451996,36.18742370605469 45.34714448451996,45.147430419921875 53.10614335536957,49.62742614746094 60.86614167690277,45.147430419921875 60.86614167690277,36.18742370605469 53.10614335536957,31.707427978515625 " id="polygon33" fill-opacity="1"/><polygon fill="#000000" points="282.2231401205063,20.7794189453125 282.2231401205063,29.739425659179688 289.98214280605316,34.21942138671875 297.74312913417816,29.739425659179688 297.74312913417816,20.7794189453125 289.98214280605316,16.299423217773438 " id="polygon35" fill-opacity="1"/><polygon fill="#000000" points="212.43014085292816,20.248428344726562 212.43014085292816,29.208419799804688 220.18914353847504,33.68843078613281 227.94913804531097,29.208419799804688 227.94913804531097,20.248428344726562 220.18914353847504,15.769424438476562 " id="polygon37" fill-opacity="1"/><polygon fill="#000000" points="272.57512986660004,37.534423828125 272.57512986660004,46.49443054199219 280.33513963222504,50.973419189453125 288.0941423177719,46.49443054199219 288.0941423177719,37.534423828125 280.33513963222504,33.05442810058594 " id="polygon39" fill-opacity="1"/><polygon fill="#000000" points="247.48813951015472,20.195419311523438 247.48813951015472,29.155426025390625 255.24813401699066,33.63542175292969 263.00814378261566,29.155426025390625 263.00814378261566,20.195419311523438 255.24813401699066,15.715423583984375 " id="polygon41" fill-opacity="1"/><polygon fill="#000000" points="203.68914353847504,5.121429443359375 203.68914353847504,14.080429077148438 211.44913804531097,18.5604248046875 219.20914781093597,14.080429077148438 219.20914781093597,5.121429443359375 211.44913804531097,0.6414260864257812 " id="polygon43" fill-opacity="1"/><path fill="#000000" d="M-3.668857193946838,-3.943573608398438 v68.444 h303.5 v-68.444 H-3.668857193946838 zM256.03014280605316,4.938426391601567 l8.074,-4.6610000000000005 l8.075,4.6610000000000005 v9.324 l-8.075,4.662 l-8.074,-4.662 V4.938426391601567 zM133.14214280605316,4.981426391601559 l8.076,-4.662 l8.074,4.662 v9.324 l-8.074,4.662 l-8.076,-4.662 V4.981426391601559 zM114.58214280605316,5.435426391601567 c0,-0.48200000000000004 0.39100000000000007,-0.8730000000000001 0.8740000000000001,-0.8730000000000001 s0.8740000000000001,0.39100000000000007 0.8740000000000001,0.8730000000000001 c0,0.42800000000000005 -0.30900000000000005,0.783 -0.7160000000000001,0.8580000000000001 v8.279 c0.40700000000000003,0.07400000000000001 0.7160000000000001,0.42900000000000005 0.7160000000000001,0.8580000000000001 c0,0.126 -0.028000000000000004,0.24500000000000002 -0.07600000000000001,0.35300000000000004 l5.57,3.128 c0.16700000000000004,-0.42400000000000004 0.5780000000000001,-0.7260000000000001 1.062,-0.7260000000000001 c0.511,0 0.9380000000000001,0.3370000000000001 1.084,0.8 l6.017,-3.283 c-0.028000000000000004,-0.08600000000000002 -0.04700000000000001,-0.17600000000000002 -0.04700000000000001,-0.271 c0,-0.48200000000000004 0.39100000000000007,-0.8730000000000001 0.8730000000000001,-0.8730000000000001 s0.8740000000000001,0.39100000000000007 0.8740000000000001,0.8730000000000001 s-0.39100000000000007,0.8730000000000001 -0.8740000000000001,0.8730000000000001 c-0.274,0 -0.515,-0.128 -0.6750000000000002,-0.32600000000000007 l-6.111,3.334 c0,0.005000000000000001 0.0010000000000000002,0.010000000000000002 0.0010000000000000002,0.015000000000000003 c0,0.5930000000000001 -0.453,1.075 -1.031,1.131 v7.638 c0.40700000000000003,0.07400000000000001 0.7160000000000001,0.42900000000000005 0.7160000000000001,0.8580000000000001 c0,0.48200000000000004 -0.39100000000000007,0.8730000000000001 -0.8740000000000001,0.8730000000000001 c-0.266,0 -0.502,-0.12200000000000001 -0.6620000000000001,-0.30900000000000005 l-7.172,4.141 c0.139,0.39000000000000007 -0.014000000000000002,0.8350000000000001 -0.38500000000000006,1.049 c-0.41800000000000004,0.24100000000000002 -0.9520000000000001,0.09800000000000003 -1.193,-0.32000000000000006 c-0.24100000000000002,-0.41800000000000004 -0.09800000000000003,-0.9520000000000001 0.32000000000000006,-1.193 c0.37100000000000005,-0.21400000000000002 0.8330000000000001,-0.12400000000000001 1.101,0.19100000000000003 l7.172,-4.141 c-0.03300000000000001,-0.09200000000000003 -0.05400000000000001,-0.18900000000000003 -0.05400000000000001,-0.29100000000000004 c0,-0.42800000000000005 0.30900000000000005,-0.783 0.7160000000000001,-0.8580000000000001 v-7.647 c-0.533,-0.09600000000000003 -0.9390000000000001,-0.561 -0.9390000000000001,-1.122 c0,-0.03300000000000001 0.007000000000000002,-0.06300000000000001 0.010000000000000002,-0.09500000000000003 l-5.676,-3.187 c-0.15800000000000003,0.16000000000000003 -0.37800000000000006,0.259 -0.6200000000000001,0.259 c-0.265,0 -0.5,-0.12100000000000001 -0.6600000000000001,-0.30800000000000005 l-5.863,3.4050000000000002 c0.0020000000000000005,0.026000000000000006 0.008000000000000002,0.05100000000000001 0.008000000000000002,0.07800000000000001 c0,0.48200000000000004 -0.39100000000000007,0.8730000000000001 -0.8730000000000001,0.8730000000000001 s-0.8740000000000001,-0.39100000000000007 -0.8740000000000001,-0.8730000000000001 c0,-0.48200000000000004 0.39100000000000007,-0.8730000000000001 0.8740000000000001,-0.8730000000000001 c0.3410000000000001,0 0.6330000000000001,0.19700000000000004 0.777,0.48200000000000004 l5.793,-3.364 c-0.03300000000000001,-0.09200000000000003 -0.05400000000000001,-0.19000000000000003 -0.05400000000000001,-0.29400000000000004 c0,-0.42800000000000005 0.30900000000000005,-0.783 0.7160000000000001,-0.8580000000000001 v-8.28 C114.89114280605317,6.218426391601568 114.58214280605316,5.864426391601569 114.58214280605316,5.435426391601567 zM97.71614280605316,5.175426391601562 l8.074,-4.662 l8.076,4.662 v9.324 l-8.076,4.662 l-8.074,-4.662 V5.175426391601562 zM62.59814280605316,5.13342639160156 l8.075,-4.6610000000000005 l8.075,4.6610000000000005 v9.324 l-8.075,4.6610000000000005 l-8.075,-4.6610000000000005 L62.59814280605316,5.13342639160156 L62.59814280605316,5.13342639160156 zM24.37314280605316,35.81742639160157 c-0.48200000000000004,0 -0.8730000000000001,-0.39100000000000007 -0.8730000000000001,-0.8730000000000001 c0,-0.135 0.03300000000000001,-0.262 0.08800000000000002,-0.37600000000000006 l-5.768,-3.35 c-0.16000000000000003,0.18700000000000003 -0.3950000000000001,0.30800000000000005 -0.6600000000000001,0.30800000000000005 c-0.274,0 -0.515,-0.129 -0.6750000000000002,-0.32600000000000007 l-6.21,3.388 c0.03200000000000001,0.10500000000000001 0.05400000000000001,0.21400000000000002 0.05400000000000001,0.32900000000000007 c0,0.5770000000000001 -0.42900000000000005,1.049 -0.985,1.127 v7.275 c0.40700000000000003,0.07400000000000001 0.7160000000000001,0.42900000000000005 0.7160000000000001,0.8580000000000001 c0,0.10200000000000001 -0.021000000000000005,0.19800000000000004 -0.05300000000000001,0.28900000000000003 l5.785,3.3200000000000003 c0.07200000000000001,-0.10500000000000001 0.16400000000000003,-0.19700000000000004 0.281,-0.264 c0.41800000000000004,-0.24100000000000002 0.9520000000000001,-0.09800000000000003 1.193,0.32000000000000006 c0.24100000000000002,0.41800000000000004 0.09800000000000003,0.9520000000000001 -0.32000000000000006,1.193 c-0.41800000000000004,0.24100000000000002 -0.9520000000000001,0.09800000000000003 -1.193,-0.32000000000000006 c-0.11600000000000002,-0.202 -0.14100000000000001,-0.43000000000000005 -0.09100000000000003,-0.6400000000000001 l-5.813,-3.3360000000000003 c-0.16000000000000003,0.18900000000000003 -0.3960000000000001,0.31100000000000005 -0.6630000000000001,0.31100000000000005 c-0.266,0 -0.502,-0.12200000000000001 -0.6620000000000001,-0.30900000000000005 l-7.172,4.14 c0.139,0.39000000000000007 -0.014000000000000002,0.8350000000000001 -0.38500000000000006,1.049 c-0.41800000000000004,0.24100000000000002 -0.9520000000000001,0.09800000000000003 -1.193,-0.32000000000000006 c-0.24100000000000002,-0.41800000000000004 -0.09800000000000003,-0.9520000000000001 0.32000000000000006,-1.193 c0.37100000000000005,-0.21400000000000002 0.8330000000000001,-0.12400000000000001 1.101,0.19100000000000003 l7.172,-4.141 c-0.03300000000000001,-0.09200000000000003 -0.05400000000000001,-0.18900000000000003 -0.05400000000000001,-0.29100000000000004 c0,-0.42800000000000005 0.30900000000000005,-0.783 0.7160000000000001,-0.8580000000000001 v-7.275 c-0.556,-0.07700000000000001 -0.985,-0.55 -0.985,-1.127 c0,-0.15800000000000003 0.03200000000000001,-0.30800000000000005 0.09000000000000002,-0.44400000000000006 l-5.71,-3.206 c-0.15800000000000003,0.16000000000000003 -0.37800000000000006,0.259 -0.6200000000000001,0.259 c-0.48200000000000004,0 -0.8740000000000001,-0.39100000000000007 -0.8740000000000001,-0.8730000000000001 c0,-0.42800000000000005 0.30900000000000005,-0.783 0.7160000000000001,-0.8580000000000001 v-8.279 c-0.40700000000000003,-0.07400000000000001 -0.7160000000000001,-0.42900000000000005 -0.7160000000000001,-0.8580000000000001 c0,-0.48200000000000004 0.39100000000000007,-0.8730000000000001 0.8740000000000001,-0.8730000000000001 s0.8730000000000001,0.39100000000000007 0.8730000000000001,0.8730000000000001 c0,0.42800000000000005 -0.30900000000000005,0.783 -0.7160000000000001,0.8580000000000001 v8.279 c0.40700000000000003,0.07400000000000001 0.7160000000000001,0.42900000000000005 0.7160000000000001,0.8580000000000001 c0,0.126 -0.028000000000000004,0.24500000000000002 -0.07600000000000001,0.35300000000000004 l5.698,3.2 c0.20900000000000002,-0.26 0.527,-0.43000000000000005 0.8870000000000001,-0.43000000000000005 c0.403,0 0.7560000000000001,0.21000000000000002 0.9590000000000001,0.525 l6.188,-3.376 c-0.028000000000000004,-0.08600000000000002 -0.04700000000000001,-0.17600000000000002 -0.04700000000000001,-0.271 c0,-0.42800000000000005 0.30900000000000005,-0.783 0.7160000000000001,-0.8580000000000001 v-8.279 c-0.40700000000000003,-0.07400000000000001 -0.7160000000000001,-0.42900000000000005 -0.7160000000000001,-0.8580000000000001 c0,-0.48200000000000004 0.39100000000000007,-0.8730000000000001 0.8730000000000001,-0.8730000000000001 c0.48200000000000004,0 0.8730000000000001,0.39100000000000007 0.8730000000000001,0.8730000000000001 c0,0.42800000000000005 -0.30900000000000005,0.783 -0.7160000000000001,0.8580000000000001 v8.279 c0.40700000000000003,0.07400000000000001 0.7160000000000001,0.42900000000000005 0.7160000000000001,0.8580000000000001 c0,0.10400000000000001 -0.021000000000000005,0.201 -0.05400000000000001,0.29400000000000004 l5.795,3.365 c0.15700000000000003,-0.14800000000000002 0.36700000000000005,-0.24100000000000002 0.6000000000000001,-0.24100000000000002 c0.48200000000000004,0 0.8730000000000001,0.39100000000000007 0.8730000000000001,0.8730000000000001 S24.855142806053163,35.81742639160157 24.37314280605316,35.81742639160157 zM34.984142806053164,29.584426391601568 l-8.074,4.662 l-8.075,-4.662 v-9.324 l8.075,-4.6610000000000005 l8.074,4.6610000000000005 V29.584426391601568 zM27.57514280605316,14.457426391601558 v-9.324 l8.074,-4.662 l8.075,4.662 v9.324 l-8.075,4.662 L27.57514280605316,14.457426391601558 zM61.182142806053164,45.32942639160157 l-8.076,4.662 l-0.07900000000000001,-0.04500000000000001 l-7.995,-4.616 v-9.324 l8.074,-4.662 l8.076,4.662 L61.182142806053164,45.32942639160157 L61.182142806053164,45.32942639160157 zM54.295142806053164,19.61642639160155 c0,0.5930000000000001 -0.453,1.075 -1.031,1.131 v7.638 c0.40700000000000003,0.07400000000000001 0.7160000000000001,0.42900000000000005 0.7160000000000001,0.8580000000000001 c0,0.10200000000000001 -0.021000000000000005,0.19800000000000004 -0.05300000000000001,0.28900000000000003 l5.785,3.3200000000000003 c0.07200000000000001,-0.10500000000000001 0.16400000000000003,-0.19700000000000004 0.28200000000000003,-0.264 c0.41800000000000004,-0.24100000000000002 0.9520000000000001,-0.09800000000000003 1.193,0.32000000000000006 c0.24100000000000002,0.41800000000000004 0.09800000000000003,0.9520000000000001 -0.32000000000000006,1.193 s-0.9520000000000001,0.09800000000000003 -1.193,-0.32000000000000006 c-0.11600000000000002,-0.202 -0.14100000000000001,-0.43000000000000005 -0.09100000000000003,-0.6400000000000001 l-5.813,-3.3360000000000003 c-0.16000000000000003,0.18900000000000003 -0.3960000000000001,0.31100000000000005 -0.6630000000000001,0.31100000000000005 c-0.266,0 -0.502,-0.12200000000000001 -0.6620000000000001,-0.30900000000000005 l-7.172,4.141 c0.139,0.39000000000000007 -0.014000000000000002,0.8350000000000001 -0.38500000000000006,1.049 c-0.41800000000000004,0.24100000000000002 -0.9520000000000001,0.09800000000000003 -1.193,-0.32000000000000006 s-0.09800000000000003,-0.9520000000000001 0.32000000000000006,-1.193 c0.37100000000000005,-0.21400000000000002 0.8330000000000001,-0.12400000000000001 1.101,0.19100000000000003 l7.172,-4.141 c-0.03300000000000001,-0.09200000000000003 -0.05400000000000001,-0.18900000000000003 -0.05400000000000001,-0.29100000000000004 c0,-0.42800000000000005 0.30900000000000005,-0.783 0.7160000000000001,-0.8580000000000001 v-7.648 c-0.533,-0.09600000000000003 -0.9380000000000001,-0.561 -0.9380000000000001,-1.122 c0,-0.03300000000000001 0.007000000000000002,-0.06300000000000001 0.010000000000000002,-0.09500000000000003 l-5.676,-3.187 c-0.15800000000000003,0.16000000000000003 -0.37800000000000006,0.259 -0.6200000000000001,0.259 c-0.265,0 -0.5,-0.12100000000000001 -0.6600000000000001,-0.30800000000000005 l-5.864,3.4050000000000002 c0.0020000000000000005,0.026000000000000006 0.008000000000000002,0.05100000000000001 0.008000000000000002,0.07800000000000001 c0,0.48200000000000004 -0.39100000000000007,0.8730000000000001 -0.8740000000000001,0.8730000000000001 c-0.48200000000000004,0 -0.8730000000000001,-0.39100000000000007 -0.8730000000000001,-0.8730000000000001 s0.39100000000000007,-0.8730000000000001 0.8730000000000001,-0.8730000000000001 c0.3410000000000001,0 0.6330000000000001,0.19700000000000004 0.777,0.48200000000000004 l5.793,-3.364 c-0.03300000000000001,-0.09200000000000003 -0.05400000000000001,-0.19000000000000003 -0.05400000000000001,-0.29400000000000004 c0,-0.42800000000000005 0.30900000000000005,-0.783 0.7160000000000001,-0.8580000000000001 v-8.279 c-0.40700000000000003,-0.07400000000000001 -0.7160000000000001,-0.42900000000000005 -0.7160000000000001,-0.8580000000000001 c0,-0.48200000000000004 0.39100000000000007,-0.8730000000000001 0.8730000000000001,-0.8730000000000001 c0.48200000000000004,0 0.8730000000000001,0.39100000000000007 0.8730000000000001,0.8730000000000001 c0,0.42800000000000005 -0.30900000000000005,0.783 -0.7160000000000001,0.8580000000000001 v8.28 c0.40700000000000003,0.07400000000000001 0.7160000000000001,0.42900000000000005 0.7160000000000001,0.8580000000000001 c0,0.126 -0.028000000000000004,0.24500000000000002 -0.07500000000000001,0.35200000000000004 l5.57,3.128 c0.16700000000000004,-0.42400000000000004 0.5780000000000001,-0.7260000000000001 1.061,-0.7260000000000001 c0.511,0 0.9380000000000001,0.3370000000000001 1.084,0.8 l6.017,-3.283 c-0.028000000000000004,-0.08600000000000002 -0.04700000000000001,-0.17600000000000002 -0.04700000000000001,-0.271 c0,-0.42800000000000005 0.30900000000000005,-0.783 0.7160000000000001,-0.8580000000000001 v-8.279 c-0.40700000000000003,-0.07400000000000001 -0.7160000000000001,-0.42900000000000005 -0.7160000000000001,-0.8580000000000001 c0,-0.48200000000000004 0.39100000000000007,-0.8730000000000001 0.8730000000000001,-0.8730000000000001 c0.48200000000000004,0 0.8740000000000001,0.39100000000000007 0.8740000000000001,0.8730000000000001 c0,0.42800000000000005 -0.30900000000000005,0.783 -0.7160000000000001,0.8580000000000001 v8.279 c0.40700000000000003,0.07400000000000001 0.7160000000000001,0.42900000000000005 0.7160000000000001,0.8580000000000001 c0,0.10400000000000001 -0.021000000000000005,0.201 -0.05400000000000001,0.29400000000000004 l5.795,3.365 c0.15700000000000003,-0.14800000000000002 0.36700000000000005,-0.24100000000000002 0.6000000000000001,-0.24100000000000002 c0.48200000000000004,0 0.8730000000000001,0.39100000000000007 0.8730000000000001,0.8730000000000001 s-0.39100000000000007,0.8730000000000001 -0.8730000000000001,0.8730000000000001 s-0.8730000000000001,-0.39100000000000007 -0.8730000000000001,-0.8730000000000001 c0,-0.135 0.03300000000000001,-0.262 0.08800000000000002,-0.37600000000000006 l-5.768,-3.349 c-0.16000000000000003,0.18700000000000003 -0.3950000000000001,0.30800000000000005 -0.6600000000000001,0.30800000000000005 c-0.274,0 -0.515,-0.128 -0.6750000000000002,-0.32600000000000007 l-6.111,3.334 C54.29414280605316,19.60642639160156 54.295142806053164,19.611426391601555 54.295142806053164,19.61642639160155 zM85.48714280605316,51.131426391601565 c-0.48200000000000004,0 -0.8740000000000001,-0.39100000000000007 -0.8740000000000001,-0.8730000000000001 c0,-0.135 0.03300000000000001,-0.262 0.08800000000000002,-0.37600000000000006 l-5.768,-3.35 c-0.16000000000000003,0.18700000000000003 -0.3950000000000001,0.30800000000000005 -0.6600000000000001,0.30800000000000005 c-0.274,0 -0.515,-0.128 -0.6750000000000002,-0.32600000000000007 l-6.21,3.388 c0.03200000000000001,0.10500000000000001 0.05400000000000001,0.21400000000000002 0.05400000000000001,0.32900000000000007 c0,0.5770000000000001 -0.42900000000000005,1.049 -0.985,1.127 v7.275 c0.40700000000000003,0.07400000000000001 0.7160000000000001,0.42900000000000005 0.7160000000000001,0.8580000000000001 c0,0.48200000000000004 -0.39100000000000007,0.8730000000000001 -0.8740000000000001,0.8730000000000001 s-0.8730000000000001,-0.39100000000000007 -0.8730000000000001,-0.8730000000000001 c0,-0.42800000000000005 0.30900000000000005,-0.783 0.7160000000000001,-0.8580000000000001 v-7.275 c-0.556,-0.07700000000000001 -0.985,-0.55 -0.985,-1.127 c0,-0.15800000000000003 0.03200000000000001,-0.30800000000000005 0.09000000000000002,-0.44400000000000006 l-5.71,-3.206 c-0.15800000000000003,0.16000000000000003 -0.37800000000000006,0.259 -0.6200000000000001,0.259 c-0.48200000000000004,0 -0.8740000000000001,-0.39100000000000007 -0.8740000000000001,-0.8730000000000001 c0,-0.42800000000000005 0.30900000000000005,-0.783 0.7160000000000001,-0.8580000000000001 v-8.279 c-0.40700000000000003,-0.07400000000000001 -0.7160000000000001,-0.42900000000000005 -0.7160000000000001,-0.8580000000000001 c0,-0.48200000000000004 0.39100000000000007,-0.8730000000000001 0.8740000000000001,-0.8730000000000001 s0.8740000000000001,0.39100000000000007 0.8740000000000001,0.8730000000000001 c0,0.42800000000000005 -0.30900000000000005,0.783 -0.7160000000000001,0.8580000000000001 v8.28 c0.40700000000000003,0.07400000000000001 0.7160000000000001,0.42900000000000005 0.7160000000000001,0.8580000000000001 c0,0.126 -0.028000000000000004,0.24500000000000002 -0.07600000000000001,0.35200000000000004 l5.698,3.2 c0.20900000000000002,-0.26 0.527,-0.43000000000000005 0.8870000000000001,-0.43000000000000005 c0.403,0 0.7560000000000001,0.21000000000000002 0.9590000000000001,0.525 l6.188,-3.376 c-0.028000000000000004,-0.08600000000000002 -0.04700000000000001,-0.17600000000000002 -0.04700000000000001,-0.271 c0,-0.42800000000000005 0.30900000000000005,-0.783 0.7160000000000001,-0.8580000000000001 v-8.28 c-0.40700000000000003,-0.07400000000000001 -0.7160000000000001,-0.42900000000000005 -0.7160000000000001,-0.8580000000000001 c0,-0.48200000000000004 0.39100000000000007,-0.8730000000000001 0.8730000000000001,-0.8730000000000001 s0.8740000000000001,0.39100000000000007 0.8740000000000001,0.8730000000000001 c0,0.42800000000000005 -0.30900000000000005,0.783 -0.7160000000000001,0.8580000000000001 v8.279 c0.40700000000000003,0.07400000000000001 0.7160000000000001,0.42900000000000005 0.7160000000000001,0.8580000000000001 c0,0.10400000000000001 -0.021000000000000005,0.201 -0.05400000000000001,0.29400000000000004 l5.795,3.365 c0.15700000000000003,-0.14800000000000002 0.36700000000000005,-0.24100000000000002 0.6000000000000001,-0.24100000000000002 c0.48200000000000004,0 0.8730000000000001,0.39100000000000007 0.8730000000000001,0.8730000000000001 S85.97014280605316,51.131426391601565 85.48714280605316,51.131426391601565 zM96.16914280605316,44.76342639160157 l-8.076,4.662 l-8.074,-4.662 v-9.324 l8.075,-4.662 l8.076,4.662 L96.16914280605316,44.76342639160157 L96.16914280605316,44.76342639160157 zM89.30814280605316,19.200426391601553 c0,0.5930000000000001 -0.453,1.075 -1.031,1.131 v7.638 c0.40700000000000003,0.07400000000000001 0.7160000000000001,0.42900000000000005 0.7160000000000001,0.8580000000000001 c0,0.10200000000000001 -0.021000000000000005,0.19800000000000004 -0.05300000000000001,0.28900000000000003 l5.785,3.3200000000000003 c0.07200000000000001,-0.10500000000000001 0.16400000000000003,-0.19700000000000004 0.28200000000000003,-0.264 c0.41800000000000004,-0.24100000000000002 0.9520000000000001,-0.09800000000000003 1.193,0.32000000000000006 c0.24100000000000002,0.41800000000000004 0.09800000000000003,0.9520000000000001 -0.32000000000000006,1.193 c-0.41800000000000004,0.24100000000000002 -0.9520000000000001,0.09800000000000003 -1.193,-0.32000000000000006 c-0.11600000000000002,-0.202 -0.14100000000000001,-0.43000000000000005 -0.09100000000000003,-0.6400000000000001 l-5.813,-3.3360000000000003 c-0.16000000000000003,0.18900000000000003 -0.3960000000000001,0.31100000000000005 -0.6630000000000001,0.31100000000000005 c-0.266,0 -0.502,-0.12200000000000001 -0.6620000000000001,-0.31000000000000005 l-7.172,4.141 c0.139,0.39000000000000007 -0.014000000000000002,0.8350000000000001 -0.38500000000000006,1.049 c-0.41800000000000004,0.24100000000000002 -0.9520000000000001,0.09800000000000003 -1.193,-0.32000000000000006 c-0.24100000000000002,-0.41800000000000004 -0.09800000000000003,-0.9520000000000001 0.32000000000000006,-1.193 c0.37100000000000005,-0.21400000000000002 0.8330000000000001,-0.12400000000000001 1.101,0.19100000000000003 l7.172,-4.141 c-0.03300000000000001,-0.09200000000000003 -0.05400000000000001,-0.18900000000000003 -0.05400000000000001,-0.29100000000000004 c0,-0.42800000000000005 0.30900000000000005,-0.783 0.7160000000000001,-0.8580000000000001 v-7.648 c-0.533,-0.09600000000000003 -0.9380000000000001,-0.561 -0.9380000000000001,-1.122 c0,-0.03300000000000001 0.007000000000000002,-0.06300000000000001 0.010000000000000002,-0.09500000000000003 l-5.676,-3.187 c-0.15800000000000003,0.16000000000000003 -0.37800000000000006,0.259 -0.6200000000000001,0.259 c-0.265,0 -0.5,-0.12100000000000001 -0.6600000000000001,-0.30800000000000005 l-5.863,3.4050000000000002 c0.0020000000000000005,0.026000000000000006 0.008000000000000002,0.05100000000000001 0.008000000000000002,0.07800000000000001 c0,0.48200000000000004 -0.39100000000000007,0.8730000000000001 -0.8740000000000001,0.8730000000000001 s-0.8730000000000001,-0.39100000000000007 -0.8730000000000001,-0.8730000000000001 c0,-0.48200000000000004 0.39100000000000007,-0.8730000000000001 0.8730000000000001,-0.8730000000000001 c0.3410000000000001,0 0.6330000000000001,0.19700000000000004 0.777,0.48200000000000004 l5.793,-3.364 c-0.03300000000000001,-0.09200000000000003 -0.05400000000000001,-0.19000000000000003 -0.05400000000000001,-0.29400000000000004 c0,-0.42800000000000005 0.30900000000000005,-0.783 0.7160000000000001,-0.8580000000000001 v-8.279 c-0.40700000000000003,-0.07400000000000001 -0.7160000000000001,-0.42900000000000005 -0.7160000000000001,-0.8580000000000001 c0,-0.48200000000000004 0.39100000000000007,-0.8730000000000001 0.8740000000000001,-0.8730000000000001 c0.48200000000000004,0 0.8730000000000001,0.39100000000000007 0.8730000000000001,0.8730000000000001 c0,0.42800000000000005 -0.30900000000000005,0.783 -0.7160000000000001,0.8580000000000001 v8.28 c0.40700000000000003,0.07400000000000001 0.7160000000000001,0.42900000000000005 0.7160000000000001,0.8580000000000001 c0,0.126 -0.028000000000000004,0.24500000000000002 -0.07600000000000001,0.35300000000000004 l5.57,3.128 c0.16700000000000004,-0.42400000000000004 0.5780000000000001,-0.7260000000000001 1.061,-0.7260000000000001 c0.511,0 0.9380000000000001,0.3370000000000001 1.084,0.8 l6.017,-3.283 c-0.028000000000000004,-0.08600000000000002 -0.04700000000000001,-0.17600000000000002 -0.04700000000000001,-0.271 c0,-0.42800000000000005 0.30900000000000005,-0.783 0.7160000000000001,-0.8580000000000001 v-8.28 c-0.40700000000000003,-0.07400000000000001 -0.7160000000000001,-0.42900000000000005 -0.7160000000000001,-0.8580000000000001 c0,-0.48200000000000004 0.39100000000000007,-0.8730000000000001 0.8740000000000001,-0.8730000000000001 c0.48200000000000004,0 0.8730000000000001,0.39100000000000007 0.8730000000000001,0.8730000000000001 c0,0.42800000000000005 -0.30900000000000005,0.783 -0.7160000000000001,0.8580000000000001 v8.279 c0.40700000000000003,0.07400000000000001 0.7160000000000001,0.42900000000000005 0.7160000000000001,0.8580000000000001 c0,0.10400000000000001 -0.021000000000000005,0.201 -0.05400000000000001,0.29400000000000004 l5.795,3.365 c0.15700000000000003,-0.14800000000000002 0.36700000000000005,-0.24100000000000002 0.6000000000000001,-0.24100000000000002 c0.48200000000000004,0 0.8740000000000001,0.39100000000000007 0.8740000000000001,0.8730000000000001 s-0.39100000000000007,0.8730000000000001 -0.8740000000000001,0.8730000000000001 s-0.8730000000000001,-0.39100000000000007 -0.8730000000000001,-0.8730000000000001 c0,-0.135 0.03300000000000001,-0.262 0.08800000000000002,-0.37600000000000006 l-5.768,-3.35 c-0.16000000000000003,0.18700000000000003 -0.3950000000000001,0.30800000000000005 -0.6600000000000001,0.30800000000000005 c-0.274,0 -0.515,-0.128 -0.6750000000000002,-0.32600000000000007 l-6.111,3.334 C89.30714280605316,19.190426391601562 89.30814280605316,19.195426391601558 89.30814280605316,19.200426391601553 zM120.80614280605316,51.633426391601574 c-0.48200000000000004,0 -0.8730000000000001,-0.39100000000000007 -0.8730000000000001,-0.8730000000000001 c0,-0.135 0.03300000000000001,-0.262 0.08800000000000002,-0.37600000000000006 l-5.768,-3.35 c-0.16000000000000003,0.18700000000000003 -0.3950000000000001,0.30800000000000005 -0.6600000000000001,0.30800000000000005 c-0.274,0 -0.515,-0.129 -0.6750000000000002,-0.32600000000000007 l-6.21,3.388 c0.03200000000000001,0.10500000000000001 0.05400000000000001,0.21400000000000002 0.05400000000000001,0.32900000000000007 c0,0.5770000000000001 -0.42900000000000005,1.049 -0.985,1.127 v7.275 c0.40700000000000003,0.07400000000000001 0.7160000000000001,0.42900000000000005 0.7160000000000001,0.8580000000000001 c0,0.48200000000000004 -0.39100000000000007,0.8730000000000001 -0.8730000000000001,0.8730000000000001 s-0.8740000000000001,-0.39100000000000007 -0.8740000000000001,-0.8730000000000001 c0,-0.42800000000000005 0.30900000000000005,-0.783 0.7160000000000001,-0.8580000000000001 v-7.275 c-0.556,-0.07700000000000001 -0.985,-0.55 -0.985,-1.127 c0,-0.15800000000000003 0.03200000000000001,-0.30800000000000005 0.09000000000000002,-0.44400000000000006 l-5.71,-3.206 c-0.15800000000000003,0.16000000000000003 -0.37800000000000006,0.259 -0.6200000000000001,0.259 c-0.48200000000000004,0 -0.8740000000000001,-0.39100000000000007 -0.8740000000000001,-0.8730000000000001 c0,-0.42800000000000005 0.30900000000000005,-0.783 0.7160000000000001,-0.8580000000000001 v-8.279 c-0.40700000000000003,-0.07400000000000001 -0.7160000000000001,-0.42900000000000005 -0.7160000000000001,-0.8580000000000001 c0,-0.48200000000000004 0.39100000000000007,-0.8730000000000001 0.8740000000000001,-0.8730000000000001 s0.8730000000000001,0.39100000000000007 0.8730000000000001,0.8730000000000001 c0,0.42800000000000005 -0.30900000000000005,0.783 -0.7160000000000001,0.8580000000000001 v8.28 c0.40700000000000003,0.07400000000000001 0.7160000000000001,0.42900000000000005 0.7160000000000001,0.8580000000000001 c0,0.126 -0.028000000000000004,0.24500000000000002 -0.07500000000000001,0.35300000000000004 l5.698,3.2 c0.20900000000000002,-0.26 0.527,-0.43000000000000005 0.8870000000000001,-0.43000000000000005 c0.403,0 0.7560000000000001,0.21000000000000002 0.9590000000000001,0.525 l6.188,-3.376 c-0.028000000000000004,-0.08600000000000002 -0.04700000000000001,-0.17600000000000002 -0.04700000000000001,-0.271 c0,-0.42800000000000005 0.30900000000000005,-0.783 0.7160000000000001,-0.8580000000000001 v-8.28 c-0.40700000000000003,-0.07400000000000001 -0.7160000000000001,-0.42900000000000005 -0.7160000000000001,-0.8580000000000001 c0,-0.48200000000000004 0.39100000000000007,-0.8730000000000001 0.8740000000000001,-0.8730000000000001 s0.8730000000000001,0.39100000000000007 0.8730000000000001,0.8730000000000001 c0,0.42800000000000005 -0.30900000000000005,0.783 -0.7160000000000001,0.8580000000000001 v8.279 c0.40700000000000003,0.07400000000000001 0.7160000000000001,0.42900000000000005 0.7160000000000001,0.8580000000000001 c0,0.10400000000000001 -0.021000000000000005,0.201 -0.05400000000000001,0.29400000000000004 l5.795,3.365 c0.15700000000000003,-0.14800000000000002 0.36700000000000005,-0.24100000000000002 0.5990000000000001,-0.24100000000000002 c0.48200000000000004,0 0.8740000000000001,0.39100000000000007 0.8740000000000001,0.8730000000000001 C121.67914280605316,51.242426391601555 121.28814280605316,51.633426391601574 120.80614280605316,51.633426391601574 zM131.70214280605316,45.32942639160157 l-8.075,4.662 l-0.07900000000000001,-0.04500000000000001 l-7.996,-4.616 v-9.324 l8.075,-4.662 l8.075,4.662 L131.70214280605316,45.32942639160157 L131.70214280605316,45.32942639160157 zM124.41514280605317,29.86042639160155 v-9.324 l8.075,-4.6610000000000005 l8.074,4.6610000000000005 v9.324 l-8.074,4.6610000000000005 L124.41514280605317,29.86042639160155 zM156.38614280605316,51.27942639160156 c-0.48200000000000004,0 -0.8730000000000001,-0.39100000000000007 -0.8730000000000001,-0.8730000000000001 c0,-0.135 0.03300000000000001,-0.262 0.08800000000000002,-0.37600000000000006 l-5.768,-3.35 c-0.16000000000000003,0.18700000000000003 -0.3950000000000001,0.30800000000000005 -0.6600000000000001,0.30800000000000005 c-0.274,0 -0.515,-0.129 -0.6750000000000002,-0.32600000000000007 l-6.21,3.388 c0.03200000000000001,0.10500000000000001 0.05400000000000001,0.21400000000000002 0.05400000000000001,0.32900000000000007 c0,0.5770000000000001 -0.42900000000000005,1.049 -0.985,1.127 v7.275 c0.40700000000000003,0.07400000000000001 0.7160000000000001,0.42900000000000005 0.7160000000000001,0.8580000000000001 c0,0.48200000000000004 -0.39100000000000007,0.8730000000000001 -0.8730000000000001,0.8730000000000001 s-0.8740000000000001,-0.39100000000000007 -0.8740000000000001,-0.8730000000000001 c0,-0.42800000000000005 0.30900000000000005,-0.783 0.7160000000000001,-0.8580000000000001 v-7.275 c-0.556,-0.07700000000000001 -0.985,-0.55 -0.985,-1.127 c0,-0.15800000000000003 0.03200000000000001,-0.30800000000000005 0.09000000000000002,-0.44500000000000006 l-5.71,-3.206 c-0.15800000000000003,0.16000000000000003 -0.37800000000000006,0.259 -0.6200000000000001,0.259 c-0.48200000000000004,0 -0.8740000000000001,-0.39100000000000007 -0.8740000000000001,-0.8730000000000001 c0,-0.42800000000000005 0.30900000000000005,-0.783 0.7160000000000001,-0.8580000000000001 v-8.279 c-0.40700000000000003,-0.07400000000000001 -0.7160000000000001,-0.42900000000000005 -0.7160000000000001,-0.8580000000000001 c0,-0.48200000000000004 0.39100000000000007,-0.8730000000000001 0.8740000000000001,-0.8730000000000001 c0.48200000000000004,0 0.8730000000000001,0.39100000000000007 0.8730000000000001,0.8730000000000001 c0,0.42800000000000005 -0.30900000000000005,0.783 -0.7160000000000001,0.8580000000000001 v8.28 c0.40700000000000003,0.07400000000000001 0.7160000000000001,0.42900000000000005 0.7160000000000001,0.8580000000000001 c0,0.126 -0.028000000000000004,0.24500000000000002 -0.07600000000000001,0.35300000000000004 l5.698,3.2 c0.20900000000000002,-0.26 0.527,-0.43000000000000005 0.8870000000000001,-0.43000000000000005 c0.403,0 0.7560000000000001,0.21000000000000002 0.9590000000000001,0.525 l6.188,-3.376 c-0.028000000000000004,-0.08600000000000002 -0.04700000000000001,-0.17600000000000002 -0.04700000000000001,-0.271 c0,-0.42800000000000005 0.30900000000000005,-0.783 0.7160000000000001,-0.8580000000000001 v-8.28 c-0.40700000000000003,-0.07400000000000001 -0.7160000000000001,-0.42900000000000005 -0.7160000000000001,-0.8580000000000001 c0,-0.48200000000000004 0.39100000000000007,-0.8730000000000001 0.8740000000000001,-0.8730000000000001 c0.48200000000000004,0 0.8730000000000001,0.39100000000000007 0.8730000000000001,0.8730000000000001 c0,0.42800000000000005 -0.30900000000000005,0.783 -0.7160000000000001,0.8580000000000001 v8.279 c0.40700000000000003,0.07400000000000001 0.7160000000000001,0.42900000000000005 0.7160000000000001,0.8580000000000001 c0,0.10400000000000001 -0.021000000000000005,0.201 -0.05400000000000001,0.29400000000000004 l5.795,3.365 c0.15700000000000003,-0.14800000000000002 0.36700000000000005,-0.24100000000000002 0.5990000000000001,-0.24100000000000002 c0.48200000000000004,0 0.8740000000000001,0.39100000000000007 0.8740000000000001,0.8730000000000001 C157.25914280605315,50.88842639160157 156.86814280605316,51.27942639160156 156.38614280605316,51.27942639160156 zM167.08014280605317,44.56942639160155 l-8.074,4.662 l-8.076,-4.662 v-9.324 l8.076,-4.662 l8.074,4.662 V44.56942639160155 zM173.75214280605317,20.304426391601567 c-0.48200000000000004,0 -0.8740000000000001,-0.39100000000000007 -0.8740000000000001,-0.8730000000000001 c0,-0.027000000000000007 0.006000000000000002,-0.05200000000000001 0.008000000000000002,-0.07800000000000001 l-5.863,-3.4050000000000002 c-0.16000000000000003,0.18700000000000003 -0.3950000000000001,0.30800000000000005 -0.6600000000000001,0.30800000000000005 c-0.24300000000000002,0 -0.462,-0.09900000000000003 -0.6200000000000001,-0.259 l-5.676,3.187 c0.003000000000000001,0.03200000000000001 0.010000000000000002,0.06300000000000001 0.010000000000000002,0.09500000000000003 c0,0.561 -0.405,1.025 -0.9380000000000001,1.122 v7.648 c0.40700000000000003,0.07400000000000001 0.7160000000000001,0.42900000000000005 0.7160000000000001,0.8580000000000001 c0,0.10300000000000001 -0.021000000000000005,0.2 -0.05400000000000001,0.29100000000000004 l7.172,4.141 c0.268,-0.31500000000000006 0.7300000000000001,-0.405 1.101,-0.19100000000000003 c0.41800000000000004,0.24100000000000002 0.561,0.775 0.32000000000000006,1.193 c-0.24100000000000002,0.41800000000000004 -0.775,0.561 -1.193,0.32000000000000006 c-0.37100000000000005,-0.21400000000000002 -0.524,-0.6590000000000001 -0.38500000000000006,-1.049 l-7.172,-4.141 c-0.16000000000000003,0.18800000000000003 -0.3960000000000001,0.30900000000000005 -0.6620000000000001,0.30900000000000005 c-0.267,0 -0.503,-0.12200000000000001 -0.6630000000000001,-0.31100000000000005 l-5.813,3.3360000000000003 c0.05000000000000001,0.21000000000000002 0.025000000000000005,0.43800000000000006 -0.09100000000000003,0.6400000000000001 c-0.24100000000000002,0.41800000000000004 -0.775,0.561 -1.193,0.32000000000000006 c-0.41800000000000004,-0.24100000000000002 -0.561,-0.775 -0.32000000000000006,-1.193 c0.24100000000000002,-0.41800000000000004 0.775,-0.561 1.193,-0.32000000000000006 c0.11700000000000002,0.06800000000000002 0.21000000000000002,0.16000000000000003 0.28200000000000003,0.264 l5.785,-3.3200000000000003 c-0.03200000000000001,-0.09100000000000003 -0.05300000000000001,-0.18700000000000003 -0.05300000000000001,-0.28900000000000003 c0,-0.42800000000000005 0.30900000000000005,-0.783 0.7160000000000001,-0.8580000000000001 v-7.638 c-0.5780000000000001,-0.05700000000000001 -1.031,-0.538 -1.031,-1.131 c0,-0.005000000000000001 0.0010000000000000002,-0.010000000000000002 0.0010000000000000002,-0.015000000000000003 l-6.111,-3.334 c-0.16000000000000003,0.19700000000000004 -0.402,0.32600000000000007 -0.6750000000000002,0.32600000000000007 c-0.265,0 -0.5,-0.12100000000000001 -0.6600000000000001,-0.30800000000000005 l-5.768,3.35 c0.05500000000000001,0.11400000000000002 0.08800000000000002,0.24100000000000002 0.08800000000000002,0.37600000000000006 c0,0.48200000000000004 -0.39100000000000007,0.8730000000000001 -0.8730000000000001,0.8730000000000001 s-0.8740000000000001,-0.39100000000000007 -0.8740000000000001,-0.8730000000000001 c0,-0.48200000000000004 0.39100000000000007,-0.8730000000000001 0.8740000000000001,-0.8730000000000001 c0.233,0 0.44300000000000006,0.09300000000000003 0.6000000000000001,0.24100000000000002 l5.795,-3.365 c-0.03300000000000001,-0.09200000000000003 -0.05400000000000001,-0.19000000000000003 -0.05400000000000001,-0.29400000000000004 c0,-0.42800000000000005 0.30900000000000005,-0.783 0.7160000000000001,-0.8580000000000001 v-8.28 c-0.40700000000000003,-0.07400000000000001 -0.7160000000000001,-0.42900000000000005 -0.7160000000000001,-0.8580000000000001 c0,-0.48200000000000004 0.39100000000000007,-0.8730000000000001 0.8730000000000001,-0.8730000000000001 s0.8740000000000001,0.39100000000000007 0.8740000000000001,0.8730000000000001 c0,0.42800000000000005 -0.30900000000000005,0.783 -0.7160000000000001,0.8580000000000001 v8.28 c0.40700000000000003,0.07400000000000001 0.7160000000000001,0.42900000000000005 0.7160000000000001,0.8580000000000001 c0,0.09500000000000003 -0.019000000000000003,0.18500000000000003 -0.04700000000000001,0.271 l6.017,3.283 c0.14600000000000002,-0.462 0.5740000000000001,-0.8 1.084,-0.8 c0.48400000000000004,0 0.8950000000000001,0.30200000000000005 1.061,0.7260000000000001 l5.57,-3.128 c-0.04800000000000001,-0.10800000000000001 -0.07500000000000001,-0.22700000000000004 -0.07500000000000001,-0.35300000000000004 c0,-0.42800000000000005 0.30900000000000005,-0.783 0.7160000000000001,-0.8580000000000001 v-8.28 c-0.40700000000000003,-0.07400000000000001 -0.7160000000000001,-0.42900000000000005 -0.7160000000000001,-0.8580000000000001 c0,-0.48200000000000004 0.39100000000000007,-0.8730000000000001 0.8730000000000001,-0.8730000000000001 s0.8740000000000001,0.39100000000000007 0.8740000000000001,0.8730000000000001 c0,0.42800000000000005 -0.30900000000000005,0.783 -0.7160000000000001,0.8580000000000001 v8.279 c0.40700000000000003,0.07400000000000001 0.7160000000000001,0.42900000000000005 0.7160000000000001,0.8580000000000001 c0,0.10400000000000001 -0.021000000000000005,0.201 -0.05400000000000001,0.29400000000000004 l5.793,3.364 c0.14400000000000002,-0.28500000000000003 0.43600000000000005,-0.48200000000000004 0.777,-0.48200000000000004 c0.48200000000000004,0 0.8730000000000001,0.39100000000000007 0.8730000000000001,0.8730000000000001 S174.23514280605315,20.304426391601567 173.75214280605317,20.304426391601567 zM167.91714280605316,14.262426391601565 v-9.324 l8.075,-4.6610000000000005 l8.075,4.6610000000000005 v9.324 l-8.075,4.6610000000000005 L167.91714280605316,14.262426391601565 zM201.46414280605316,45.02342639160156 l-8.076,4.662 l-8.075,-4.662 v-9.324 l8.075,-4.662 l8.076,4.662 V45.02342639160156 zM208.57614280605316,20.578426391601568 c-0.48200000000000004,0 -0.8730000000000001,-0.39100000000000007 -0.8730000000000001,-0.8730000000000001 c0,-0.135 0.03300000000000001,-0.262 0.08800000000000002,-0.37600000000000006 l-5.768,-3.35 c-0.16000000000000003,0.18700000000000003 -0.3950000000000001,0.30800000000000005 -0.6600000000000001,0.30800000000000005 c-0.274,0 -0.515,-0.128 -0.6750000000000002,-0.32600000000000007 l-6.111,3.334 c0,0.005000000000000001 0.0010000000000000002,0.010000000000000002 0.0010000000000000002,0.015000000000000003 c0,0.5930000000000001 -0.453,1.075 -1.031,1.131 v7.638 c0.40700000000000003,0.07400000000000001 0.7160000000000001,0.42900000000000005 0.7160000000000001,0.8580000000000001 c0,0.10200000000000001 -0.021000000000000005,0.19800000000000004 -0.05300000000000001,0.28900000000000003 l5.785,3.3200000000000003 c0.07100000000000001,-0.10500000000000001 0.16400000000000003,-0.19700000000000004 0.281,-0.264 c0.41800000000000004,-0.24100000000000002 0.9520000000000001,-0.09800000000000003 1.193,0.32000000000000006 c0.24100000000000002,0.41800000000000004 0.09800000000000003,0.9520000000000001 -0.32000000000000006,1.193 c-0.41800000000000004,0.24100000000000002 -0.9520000000000001,0.09800000000000003 -1.193,-0.32000000000000006 c-0.11600000000000002,-0.202 -0.14100000000000001,-0.43000000000000005 -0.09100000000000003,-0.6400000000000001 l-5.813,-3.3360000000000003 c-0.16000000000000003,0.18900000000000003 -0.3960000000000001,0.31100000000000005 -0.6630000000000001,0.31100000000000005 c-0.266,0 -0.502,-0.12200000000000001 -0.6620000000000001,-0.30900000000000005 l-7.172,4.141 c0.139,0.39000000000000007 -0.014000000000000002,0.8350000000000001 -0.38500000000000006,1.049 c-0.41800000000000004,0.24100000000000002 -0.9520000000000001,0.09800000000000003 -1.193,-0.32000000000000006 c-0.24100000000000002,-0.41800000000000004 -0.09800000000000003,-0.9520000000000001 0.32000000000000006,-1.193 c0.37100000000000005,-0.21400000000000002 0.8330000000000001,-0.12400000000000001 1.101,0.19100000000000003 l7.172,-4.141 c-0.03300000000000001,-0.09200000000000003 -0.05400000000000001,-0.18900000000000003 -0.05400000000000001,-0.29100000000000004 c0,-0.42800000000000005 0.30900000000000005,-0.783 0.7160000000000001,-0.8580000000000001 v-7.648 c-0.533,-0.09600000000000003 -0.9390000000000001,-0.561 -0.9390000000000001,-1.122 c0,-0.03300000000000001 0.007000000000000002,-0.06300000000000001 0.010000000000000002,-0.09500000000000003 l-5.676,-3.187 c-0.15800000000000003,0.16000000000000003 -0.37800000000000006,0.259 -0.6200000000000001,0.259 c-0.265,0 -0.5,-0.12100000000000001 -0.6600000000000001,-0.30800000000000005 l-5.863,3.4050000000000002 c0.0020000000000000005,0.026000000000000006 0.008000000000000002,0.05100000000000001 0.008000000000000002,0.07800000000000001 c0,0.48200000000000004 -0.39100000000000007,0.8730000000000001 -0.8730000000000001,0.8730000000000001 c-0.48200000000000004,0 -0.8740000000000001,-0.39100000000000007 -0.8740000000000001,-0.8730000000000001 c0,-0.48200000000000004 0.39100000000000007,-0.8730000000000001 0.8740000000000001,-0.8730000000000001 c0.3410000000000001,0 0.6330000000000001,0.19700000000000004 0.777,0.48200000000000004 l5.793,-3.364 c-0.03300000000000001,-0.09200000000000003 -0.05400000000000001,-0.19000000000000003 -0.05400000000000001,-0.29400000000000004 c0,-0.42800000000000005 0.30900000000000005,-0.783 0.7160000000000001,-0.8580000000000001 v-8.279 c-0.40700000000000003,-0.07400000000000001 -0.7160000000000001,-0.42900000000000005 -0.7160000000000001,-0.8580000000000001 c0,-0.48200000000000004 0.39100000000000007,-0.8730000000000001 0.8740000000000001,-0.8730000000000001 s0.8730000000000001,0.39100000000000007 0.8730000000000001,0.8730000000000001 c0,0.42800000000000005 -0.30900000000000005,0.783 -0.7160000000000001,0.8580000000000001 v8.279 c0.40700000000000003,0.07400000000000001 0.7160000000000001,0.42900000000000005 0.7160000000000001,0.8580000000000001 c0,0.126 -0.028000000000000004,0.24500000000000002 -0.07500000000000001,0.35300000000000004 l5.57,3.128 c0.16700000000000004,-0.42400000000000004 0.5780000000000001,-0.7260000000000001 1.062,-0.7260000000000001 c0.511,0 0.9380000000000001,0.3370000000000001 1.084,0.8 l6.017,-3.283 c-0.028000000000000004,-0.08600000000000002 -0.04700000000000001,-0.17600000000000002 -0.04700000000000001,-0.271 c0,-0.42800000000000005 0.30900000000000005,-0.783 0.7160000000000001,-0.8580000000000001 v-8.279 c-0.40700000000000003,-0.07400000000000001 -0.7160000000000001,-0.42900000000000005 -0.7160000000000001,-0.8580000000000001 c0,-0.48200000000000004 0.39100000000000007,-0.8730000000000001 0.8740000000000001,-0.8730000000000001 s0.8730000000000001,0.39100000000000007 0.8730000000000001,0.8730000000000001 c0,0.42800000000000005 -0.30900000000000005,0.783 -0.7160000000000001,0.8580000000000001 v8.28 c0.40700000000000003,0.07400000000000001 0.7160000000000001,0.42900000000000005 0.7160000000000001,0.8580000000000001 c0,0.10400000000000001 -0.021000000000000005,0.201 -0.05400000000000001,0.29400000000000004 l5.795,3.365 c0.15700000000000003,-0.14800000000000002 0.36700000000000005,-0.24100000000000002 0.6000000000000001,-0.24100000000000002 c0.48200000000000004,0 0.8740000000000001,0.39100000000000007 0.8740000000000001,0.8730000000000001 S209.05814280605316,20.578426391601568 208.57614280605316,20.578426391601568 zM203.37414280605316,14.262426391601565 v-9.324 l8.075,-4.662 l8.074,4.662 v9.324 l-8.074,4.662 L203.37414280605316,14.262426391601565 zM212.11514280605317,29.39042639160155 v-9.324 l8.074,-4.6610000000000005 l8.075,4.6610000000000005 v9.324 l-8.075,4.662 L212.11514280605317,29.39042639160155 zM252.68614280605317,35.653426391601556 c-0.48200000000000004,0 -0.8730000000000001,-0.39100000000000007 -0.8730000000000001,-0.8730000000000001 c0,-0.027000000000000007 0.006000000000000002,-0.05200000000000001 0.008000000000000002,-0.07800000000000001 l-5.863,-3.4050000000000002 c-0.16000000000000003,0.18700000000000003 -0.3950000000000001,0.30800000000000005 -0.6600000000000001,0.30800000000000005 c-0.24300000000000002,0 -0.462,-0.09900000000000003 -0.6200000000000001,-0.259 l-5.71,3.206 c0.05800000000000001,0.137 0.09000000000000002,0.28700000000000003 0.09000000000000002,0.44400000000000006 c0,0.5770000000000001 -0.42900000000000005,1.049 -0.985,1.127 v7.275 c0.40700000000000003,0.07400000000000001 0.7160000000000001,0.42900000000000005 0.7160000000000001,0.8580000000000001 c0,0.10300000000000001 -0.021000000000000005,0.2 -0.05400000000000001,0.29100000000000004 l7.172,4.141 c0.268,-0.31500000000000006 0.7300000000000001,-0.405 1.101,-0.19100000000000003 c0.41800000000000004,0.24100000000000002 0.561,0.775 0.32000000000000006,1.193 c-0.24100000000000002,0.41800000000000004 -0.775,0.561 -1.193,0.32000000000000006 c-0.37100000000000005,-0.21400000000000002 -0.524,-0.6590000000000001 -0.38500000000000006,-1.049 l-7.172,-4.141 c-0.16000000000000003,0.18800000000000003 -0.3960000000000001,0.30900000000000005 -0.6620000000000001,0.30900000000000005 c-0.267,0 -0.503,-0.12200000000000001 -0.6630000000000001,-0.31100000000000005 l-5.813,3.3360000000000003 c0.05000000000000001,0.21000000000000002 0.025000000000000005,0.43800000000000006 -0.09100000000000003,0.6400000000000001 c-0.24100000000000002,0.41800000000000004 -0.775,0.561 -1.193,0.32000000000000006 c-0.41800000000000004,-0.24100000000000002 -0.561,-0.775 -0.32000000000000006,-1.193 s0.775,-0.561 1.193,-0.32000000000000006 c0.11700000000000002,0.06800000000000002 0.21000000000000002,0.16000000000000003 0.281,0.264 l5.785,-3.3200000000000003 c-0.03200000000000001,-0.09100000000000003 -0.05300000000000001,-0.18700000000000003 -0.05300000000000001,-0.28900000000000003 c0,-0.42800000000000005 0.30900000000000005,-0.783 0.7160000000000001,-0.8580000000000001 v-7.275 c-0.556,-0.07700000000000001 -0.985,-0.55 -0.985,-1.127 c0,-0.11500000000000002 0.022000000000000006,-0.22400000000000003 0.05400000000000001,-0.32900000000000007 l-6.21,-3.388 c-0.16000000000000003,0.19700000000000004 -0.401,0.32600000000000007 -0.6750000000000002,0.32600000000000007 c-0.265,0 -0.5,-0.12100000000000001 -0.6600000000000001,-0.30800000000000005 l-5.768,3.35 c0.05500000000000001,0.11400000000000002 0.08800000000000002,0.24100000000000002 0.08800000000000002,0.37600000000000006 c0,0.48200000000000004 -0.39100000000000007,0.8730000000000001 -0.8730000000000001,0.8730000000000001 c-0.48200000000000004,0 -0.8740000000000001,-0.39100000000000007 -0.8740000000000001,-0.8730000000000001 c0,-0.48200000000000004 0.39100000000000007,-0.8730000000000001 0.8740000000000001,-0.8730000000000001 c0.233,0 0.44300000000000006,0.09300000000000003 0.6000000000000001,0.24100000000000002 l5.795,-3.365 c-0.03300000000000001,-0.09200000000000003 -0.05400000000000001,-0.19000000000000003 -0.05400000000000001,-0.29400000000000004 c0,-0.42800000000000005 0.30900000000000005,-0.783 0.7160000000000001,-0.8580000000000001 v-8.28 c-0.40700000000000003,-0.07400000000000001 -0.7160000000000001,-0.42900000000000005 -0.7160000000000001,-0.8580000000000001 c0,-0.48200000000000004 0.39100000000000007,-0.8730000000000001 0.8740000000000001,-0.8730000000000001 s0.8740000000000001,0.39100000000000007 0.8740000000000001,0.8730000000000001 c0,0.42800000000000005 -0.30900000000000005,0.783 -0.7160000000000001,0.8580000000000001 v8.28 c0.40700000000000003,0.07400000000000001 0.7160000000000001,0.42900000000000005 0.7160000000000001,0.8580000000000001 c0,0.09500000000000003 -0.019000000000000003,0.18500000000000003 -0.04700000000000001,0.271 l6.188,3.376 c0.203,-0.31500000000000006 0.556,-0.525 0.9590000000000001,-0.525 c0.36000000000000004,0 0.6770000000000002,0.17 0.8870000000000001,0.43000000000000005 l5.698,-3.2 c-0.04800000000000001,-0.10800000000000001 -0.07600000000000001,-0.22700000000000004 -0.07600000000000001,-0.35300000000000004 c0,-0.42800000000000005 0.30900000000000005,-0.783 0.7160000000000001,-0.8580000000000001 v-8.28 c-0.40700000000000003,-0.07400000000000001 -0.7160000000000001,-0.42900000000000005 -0.7160000000000001,-0.8580000000000001 c0,-0.48200000000000004 0.39100000000000007,-0.8730000000000001 0.8730000000000001,-0.8730000000000001 s0.8740000000000001,0.39100000000000007 0.8740000000000001,0.8730000000000001 c0,0.42800000000000005 -0.30900000000000005,0.783 -0.7160000000000001,0.8580000000000001 v8.279 c0.40700000000000003,0.07400000000000001 0.7160000000000001,0.42900000000000005 0.7160000000000001,0.8580000000000001 c0,0.10400000000000001 -0.021000000000000005,0.201 -0.05400000000000001,0.29400000000000004 l5.793,3.364 c0.14400000000000002,-0.28500000000000003 0.43600000000000005,-0.48200000000000004 0.777,-0.48200000000000004 c0.48200000000000004,0 0.8740000000000001,0.39100000000000007 0.8740000000000001,0.8730000000000001 C253.56014280605316,35.262426391601565 253.16914280605317,35.653426391601556 252.68614280605317,35.653426391601556 zM247.17314280605316,29.337426391601554 v-9.324 l8.075,-4.662 l8.075,4.662 v9.324 l-8.075,4.662 L247.17314280605316,29.337426391601554 zM288.4091428060532,46.67642639160155 l-8.075,4.662 l-8.075,-4.662 v-9.324 l8.075,-4.6610000000000005 l8.075,4.6610000000000005 V46.67642639160155 zM287.54914280605317,36.147426391601556 c-0.48200000000000004,0 -0.8740000000000001,-0.39100000000000007 -0.8740000000000001,-0.8730000000000001 c0,-0.135 0.03300000000000001,-0.262 0.08800000000000002,-0.37600000000000006 l-5.768,-3.35 c-0.16000000000000003,0.18700000000000003 -0.3950000000000001,0.30800000000000005 -0.6600000000000001,0.30800000000000005 c-0.274,0 -0.515,-0.128 -0.6750000000000002,-0.32600000000000007 l-6.111,3.334 c0,0.005000000000000001 0.0010000000000000002,0.010000000000000002 0.0010000000000000002,0.015000000000000003 c0,0.6310000000000001 -0.511,1.142 -1.142,1.142 c-0.6310000000000001,0 -1.143,-0.512 -1.143,-1.142 c0,-0.03300000000000001 0.007000000000000002,-0.06300000000000001 0.010000000000000002,-0.09500000000000003 l-5.676,-3.187 c-0.15800000000000003,0.16000000000000003 -0.37800000000000006,0.259 -0.6200000000000001,0.259 c-0.265,0 -0.5,-0.12100000000000001 -0.6600000000000001,-0.30800000000000005 l-5.863,3.4050000000000002 c0.0020000000000000005,0.026000000000000006 0.008000000000000002,0.05100000000000001 0.008000000000000002,0.07800000000000001 c0,0.48200000000000004 -0.39100000000000007,0.8730000000000001 -0.8730000000000001,0.8730000000000001 s-0.8740000000000001,-0.39100000000000007 -0.8740000000000001,-0.8730000000000001 s0.39100000000000007,-0.8730000000000001 0.8740000000000001,-0.8730000000000001 c0.3410000000000001,0 0.6330000000000001,0.19700000000000004 0.777,0.48200000000000004 l5.793,-3.364 c-0.03300000000000001,-0.09200000000000003 -0.05400000000000001,-0.19000000000000003 -0.05400000000000001,-0.29400000000000004 c0,-0.42800000000000005 0.30900000000000005,-0.783 0.7160000000000001,-0.8580000000000001 v-8.279 c-0.40700000000000003,-0.07400000000000001 -0.7160000000000001,-0.42900000000000005 -0.7160000000000001,-0.8580000000000001 c0,-0.48200000000000004 0.39100000000000007,-0.8730000000000001 0.8740000000000001,-0.8730000000000001 s0.8740000000000001,0.39100000000000007 0.8740000000000001,0.8730000000000001 c0,0.42800000000000005 -0.30900000000000005,0.783 -0.7160000000000001,0.8580000000000001 v8.279 c0.40700000000000003,0.07400000000000001 0.7160000000000001,0.42900000000000005 0.7160000000000001,0.8580000000000001 c0,0.126 -0.028000000000000004,0.24500000000000002 -0.07600000000000001,0.35300000000000004 l5.57,3.128 c0.16700000000000004,-0.42400000000000004 0.5780000000000001,-0.7260000000000001 1.062,-0.7260000000000001 c0.511,0 0.9380000000000001,0.3370000000000001 1.084,0.8 l6.017,-3.283 c-0.028000000000000004,-0.08600000000000002 -0.04700000000000001,-0.17600000000000002 -0.04700000000000001,-0.271 c0,-0.42800000000000005 0.30900000000000005,-0.783 0.7160000000000001,-0.8580000000000001 v-8.279 c-0.40700000000000003,-0.07400000000000001 -0.7160000000000001,-0.42900000000000005 -0.7160000000000001,-0.8580000000000001 c0,-0.48200000000000004 0.39100000000000007,-0.8730000000000001 0.8730000000000001,-0.8730000000000001 c0.48200000000000004,0 0.8740000000000001,0.39100000000000007 0.8740000000000001,0.8730000000000001 c0,0.42800000000000005 -0.30900000000000005,0.783 -0.7160000000000001,0.8580000000000001 v8.279 c0.40700000000000003,0.07400000000000001 0.7160000000000001,0.42900000000000005 0.7160000000000001,0.8580000000000001 c0,0.10400000000000001 -0.021000000000000005,0.201 -0.05400000000000001,0.29400000000000004 l5.795,3.365 c0.15700000000000003,-0.14800000000000002 0.36700000000000005,-0.24100000000000002 0.6000000000000001,-0.24100000000000002 c0.48200000000000004,0 0.8730000000000001,0.39100000000000007 0.8730000000000001,0.8730000000000001 C288.42314280605314,35.756426391601565 288.03114280605314,36.147426391601556 287.54914280605317,36.147426391601556 zM298.0581428060532,29.920426391601552 l-8.076,4.662 l-8.075,-4.662 v-9.324 l8.075,-4.662 l8.076,4.662 V29.920426391601552 z" id="path45" fill-opacity="1"/></g></g></g></g></svg>