<?xml version="1.0" standalone="no"?>
<!DOCTYPE svg PUBLIC "-//W3C//DTD SVG 20010904//EN"
 "http://www.w3.org/TR/2001/REC-SVG-20010904/DTD/svg10.dtd">
<svg version="1.0" xmlns="http://www.w3.org/2000/svg"
 width="699.000000pt" height="699.000000pt" viewBox="0 0 699.000000 699.000000"
 preserveAspectRatio="xMidYMid meet">
<metadata>
Created by potrace 1.11, written by Peter Selinger 2001-2013
</metadata>
<g transform="translate(0.000000,699.000000) scale(0.100000,-0.100000)"
fill="#000000" stroke="none">
<path d="M2340 6431 c0 -8 -7 -11 -20 -8 -11 3 -20 1 -20 -4 0 -5 -9 -9 -20
-9 -11 0 -20 -5 -20 -11 0 -5 -4 -7 -10 -4 -5 3 -10 0 -10 -7 0 -10 -3 -9 -10
2 -8 12 -10 12 -16 -3 -4 -10 -13 -16 -20 -13 -8 3 -14 1 -14 -4 0 -6 -9 -10
-20 -10 -11 0 -20 -6 -20 -12 0 -9 -4 -8 -10 2 -8 13 -10 12 -10 -2 0 -10 -5
-18 -11 -18 -5 0 -7 5 -4 11 4 6 -2 5 -14 -3 -12 -7 -21 -16 -21 -19 0 -4 -10
-6 -22 -5 -15 1 -22 -4 -20 -13 2 -8 -3 -11 -13 -8 -9 4 -15 1 -15 -7 0 -17
-27 -29 -43 -19 -7 4 -6 -1 2 -10 11 -14 11 -17 0 -18 -8 -1 -18 -1 -22 0 -5
1 -6 -3 -2 -9 3 -6 12 -8 18 -4 7 3 5 0 -3 -8 -17 -14 -21 -92 -6 -116 4 -7 2
-12 -6 -12 -10 0 -10 -2 -1 -8 7 -4 13 -39 15 -82 2 -41 8 -78 13 -82 6 -5 6
-8 -1 -8 -6 0 -10 -11 -9 -25 2 -14 -1 -25 -5 -25 -5 0 -12 -9 -15 -20 -4 -11
-10 -18 -15 -15 -4 3 -11 -2 -14 -11 -3 -8 -10 -12 -16 -9 -5 3 -10 1 -10 -5
0 -8 -6 -8 -20 0 -16 9 -19 8 -13 -6 4 -12 3 -15 -5 -10 -7 4 -12 2 -12 -3 0
-6 -5 -11 -11 -11 -5 0 -7 6 -3 13 6 9 5 9 -8 0 -8 -7 -18 -9 -22 -5 -4 4 -6
0 -4 -8 2 -8 -3 -14 -10 -12 -7 1 -26 -7 -43 -18 -16 -12 -34 -18 -40 -14 -8
5 -9 3 -4 -6 5 -8 3 -11 -6 -8 -8 3 -20 -2 -27 -9 -12 -11 -17 -11 -30 -1 -11
9 -14 10 -9 1 8 -12 -27 -27 -49 -22 -5 1 -25 -5 -44 -14 -19 -8 -38 -13 -42
-11 -5 3 -8 0 -8 -6 0 -6 -4 -8 -10 -5 -5 3 -10 1 -10 -5 0 -6 -4 -9 -9 -5 -5
3 -13 0 -16 -6 -4 -5 -14 -8 -22 -5 -8 3 -11 1 -8 -4 3 -6 -2 -10 -13 -10 -10
0 -22 -3 -26 -7 -8 -9 -33 -15 -68 -17 -14 0 -24 -4 -22 -7 2 -4 -4 -13 -13
-20 -12 -10 -14 -10 -9 -1 9 15 -6 16 -22 0 -7 -7 -12 -9 -12 -5 0 4 -13 1
-29 -7 -16 -9 -31 -13 -33 -10 -3 2 -21 -3 -41 -11 -21 -8 -37 -12 -37 -8 0 4
-5 2 -12 -5 -7 -7 -22 -12 -34 -12 -13 0 -26 -5 -29 -11 -4 -6 -13 -8 -21 -5
-8 3 -14 1 -14 -4 0 -5 -9 -7 -20 -5 -11 2 -22 -1 -26 -7 -4 -6 -10 -5 -15 3
-7 11 -9 10 -9 -3 0 -12 -6 -16 -20 -13 -11 2 -18 0 -15 -6 6 -8 -8 -13 -28
-10 -5 1 -6 -3 -2 -9 5 -9 -7 -14 -26 -12 -4 1 -4 -8 -1 -20 4 -17 2 -20 -13
-14 -15 5 -16 4 -6 -8 8 -10 9 -16 1 -21 -6 -3 -8 -10 -5 -15 3 -5 1 -11 -4
-14 -11 -7 -9 -1726 2 -1726 5 0 5 -6 0 -12 -14 -23 -14 -50 -1 -42 10 6 10 4
2 -7 -10 -13 -10 -163 -2 -416 2 -46 1 -83 -2 -83 -3 0 -6 -515 -8 -1144 -3
-1080 -2 -1146 15 -1182 20 -44 37 -64 53 -64 6 0 13 -6 16 -13 7 -19 6 -19
339 -21 165 0 305 -4 312 -9 6 -4 14 -3 18 3 4 6 11 7 17 4 14 -9 153 -8 167
0 6 4 11 3 11 -1 0 -12 204 -10 212 2 5 6 8 4 8 -5 0 -10 3 -11 8 -4 4 7 18
14 32 15 14 2 31 10 38 17 8 7 18 10 23 7 5 -4 9 1 9 10 0 9 4 14 9 10 6 -3
14 3 20 12 6 10 11 14 11 8 0 -5 7 1 16 13 8 12 22 22 30 22 8 0 17 7 20 15 4
8 13 15 21 15 8 0 12 4 9 9 -8 12 21 34 34 26 6 -4 9 -1 8 6 -2 6 3 14 11 17
9 3 11 0 6 -8 -5 -8 -4 -11 3 -6 6 4 8 14 5 23 -4 11 -3 14 5 9 7 -4 12 -2 12
4 0 6 5 8 12 4 8 -5 9 -2 5 11 -6 14 -3 16 12 12 15 -3 18 -1 14 11 -5 12 -2
14 12 8 11 -4 17 -4 13 -1 -11 11 35 56 51 50 9 -3 13 -3 9 0 -7 8 33 51 44
48 5 -2 8 1 8 7 0 16 49 59 54 47 3 -8 5 -8 5 1 1 7 11 23 22 35 12 12 19 15
15 7 -4 -8 0 -6 8 4 9 11 16 16 16 11 0 -5 6 -1 13 10 9 11 19 15 27 10 7 -5
11 -4 8 1 -3 5 3 17 14 26 10 10 18 15 18 10 0 -4 5 1 11 11 6 9 15 15 20 11
5 -3 9 -2 8 3 -4 20 2 24 18 12 10 -9 14 -9 10 -2 -9 15 29 56 43 48 6 -4 7 2
3 12 -6 16 -5 17 12 3 11 -9 16 -10 11 -2 -8 13 17 45 28 35 3 -4 6 -1 6 6 0
7 5 9 10 6 6 -3 10 -1 10 5 0 6 5 8 10 5 6 -3 10 -1 10 4 0 6 3 10 8 9 4 -1
20 4 35 10 16 7 33 10 38 6 5 -3 12 2 15 10 3 9 10 13 15 10 5 -3 16 2 25 10
9 9 19 14 24 11 5 -3 11 -1 15 5 4 6 11 8 16 5 5 -4 9 -2 9 4 0 5 10 13 23 17
12 3 35 16 51 27 19 13 27 16 22 6 -4 -7 -1 -6 7 4 9 10 18 18 21 18 21 -3 26
0 20 11 -5 7 -3 8 6 3 7 -4 16 -2 21 6 7 12 9 11 9 -1 1 -9 6 -5 15 10 8 14
14 19 15 12 0 -8 8 -6 22 8 12 11 30 20 39 20 10 0 21 5 24 10 4 6 11 8 16 5
5 -4 9 -1 9 5 0 6 5 8 10 5 6 -3 10 -1 10 5 0 6 4 9 8 6 5 -3 30 6 55 19 26
13 45 18 41 12 -3 -7 2 -3 10 7 9 11 16 16 16 10 0 -5 3 -5 8 1 13 18 89 55
96 47 4 -4 7 -2 6 3 -5 22 1 27 15 15 13 -11 14 -10 9 5 -5 13 -4 16 4 11 7
-4 12 -2 12 4 0 7 7 9 16 6 10 -4 13 -2 8 6 -5 8 -2 9 10 5 10 -4 15 -3 11 3
-5 9 15 15 38 11 4 -1 10 6 13 14 4 8 10 15 16 15 5 0 6 -6 2 -12 -4 -7 2 -5
14 5 11 11 26 16 31 12 6 -3 11 -2 11 3 0 6 7 13 16 16 10 4 13 2 8 -7 -4 -6
2 -3 14 7 12 11 25 16 29 13 3 -4 12 -2 20 4 7 6 13 8 13 4 0 -4 7 -2 15 5 12
10 15 10 15 -1 0 -9 3 -10 8 -3 9 14 43 14 61 0 12 -9 13 -8 7 4 -4 8 1 6 11
-6 10 -11 25 -18 32 -16 8 3 11 0 7 -7 -4 -6 -3 -11 3 -11 5 0 12 -9 16 -20 3
-11 12 -19 18 -17 7 1 11 -4 10 -10 -2 -7 5 -13 15 -13 14 0 15 -2 2 -10 -12
-8 -12 -10 5 -10 17 0 17 -2 5 -10 -13 -9 -13 -10 0 -11 8 -1 18 -1 22 0 5 0
7 -2 6 -7 -4 -15 14 -52 23 -47 8 6 14 -17 10 -39 -1 -5 5 -6 13 -3 13 5 30
-24 27 -46 -1 -5 3 -6 8 -3 5 3 15 -2 22 -11 10 -12 10 -14 2 -9 -7 4 -13 2
-13 -3 0 -6 5 -11 11 -11 5 0 7 -5 4 -10 -4 -6 -3 -10 2 -9 23 4 31 -3 29 -25
-2 -18 1 -23 12 -18 10 3 13 1 8 -6 -4 -7 -2 -12 3 -12 6 0 11 -7 11 -16 0 -8
4 -12 10 -9 6 3 10 -3 10 -15 0 -12 4 -19 8 -16 4 2 14 -9 21 -25 7 -16 16
-27 21 -24 12 8 70 -44 70 -63 0 -15 2 -15 10 -2 9 14 14 7 11 -13 -1 -5 3 -6
8 -3 5 4 12 2 16 -4 4 -6 11 -8 16 -5 5 4 12 -1 15 -9 3 -9 13 -16 20 -16 8 0
17 -7 20 -15 4 -8 10 -12 15 -9 5 3 9 0 9 -6 0 -6 5 -8 10 -5 6 3 10 1 10 -5
0 -6 5 -8 10 -5 6 3 10 1 10 -4 0 -6 8 -11 18 -11 11 0 27 -9 37 -20 10 -11
22 -17 28 -13 5 3 16 -2 24 -12 7 -11 13 -15 13 -11 0 5 6 3 14 -3 8 -6 18
-11 22 -10 5 1 11 0 14 -1 13 -5 50 -10 95 -15 59 -5 118 -11 200 -21 33 -4
72 -8 88 -8 15 0 27 -3 27 -6 0 -3 24 -6 53 -6 28 -1 77 -4 107 -7 30 -3 91
-9 135 -12 44 -4 83 -9 88 -12 4 -2 7 1 7 7 0 7 7 10 15 7 8 -4 17 -2 20 4 4
5 11 7 16 4 5 -4 12 1 15 10 5 13 9 13 22 3 12 -10 14 -10 8 0 -4 7 0 19 8 28
9 8 16 12 16 7 0 -4 5 0 11 10 5 9 17 17 26 17 9 0 13 6 9 15 -3 9 0 15 9 15
7 0 17 9 20 21 5 15 10 17 20 9 10 -8 13 -6 11 7 0 12 5 17 17 17 13 -2 15 1
7 11 -8 10 -8 15 1 21 8 5 9 3 4 -6 -6 -9 -4 -11 4 -6 7 5 10 15 6 23 -5 14
-3 14 12 2 15 -12 16 -12 10 4 -3 9 -2 17 3 17 6 0 9 3 9 8 -3 19 3 22 24 11
19 -11 20 -10 10 2 -10 12 -8 17 9 28 11 7 17 8 14 2 -4 -5 -1 -13 6 -17 7 -4
10 -4 6 1 -11 12 11 47 25 38 7 -4 5 2 -3 12 -10 13 -11 16 -2 11 14 -8 44 22
36 36 -3 4 3 5 12 1 13 -5 16 -2 11 9 -3 9 1 25 9 37 8 12 12 26 9 31 -3 6 1
10 9 10 9 0 13 7 11 20 -2 11 0 20 5 20 5 0 11 14 15 30 4 17 10 28 14 25 5
-2 8 3 8 13 -1 9 4 28 10 42 7 14 14 38 18 53 3 15 10 25 15 22 6 -4 7 1 3 11
-5 13 -3 15 7 9 9 -5 11 -4 6 4 -4 6 -3 17 2 24 11 13 12 17 12 42 0 8 8 15
18 15 13 0 14 2 3 9 -9 6 -10 14 -4 27 6 11 9 31 8 47 -1 15 1 27 4 27 3 0 7
16 8 36 1 19 7 41 13 49 8 10 8 15 0 20 -8 5 -8 11 -1 19 6 7 8 16 4 19 -3 4
-1 7 6 7 6 0 11 8 9 18 -2 9 2 16 8 15 7 -1 11 3 11 10 -1 34 4 48 15 41 8 -5
9 -2 5 9 -3 10 -2 17 3 17 5 0 7 6 4 14 -3 8 4 21 16 29 15 11 18 16 8 20 -10
4 -10 6 0 6 6 1 12 10 12 20 0 11 5 23 10 26 6 4 7 12 3 18 -4 7 2 5 12 -3 17
-14 18 -14 7 7 -8 14 -9 24 -2 28 6 4 8 11 5 16 -4 5 -1 9 4 9 6 0 10 3 10 8
-3 20 2 32 15 32 8 0 18 4 21 10 3 6 -1 7 -10 4 -11 -5 -14 -2 -9 10 3 9 10
16 15 16 4 0 6 6 3 14 -3 8 0 17 5 21 6 3 9 11 6 16 -4 5 -1 9 5 9 6 0 8 4 5
10 -3 6 -2 10 3 10 5 0 8 11 7 25 -2 14 1 27 5 30 5 3 7 12 4 19 -3 8 0 17 5
21 6 3 8 12 4 18 -8 12 -9 26 -14 139 -2 37 -6 65 -9 63 -3 -2 -6 8 -7 23 -1
26 -5 51 -18 117 -4 17 -8 39 -9 50 -1 12 -5 26 -9 32 -4 6 -3 15 3 18 6 4 7
12 3 18 -11 15 -16 56 -17 134 -1 35 -4 63 -8 63 -4 0 -7 8 -7 18 -1 40 -8 66
-19 70 -7 2 -10 8 -6 13 3 5 0 9 -5 9 -6 0 -11 9 -11 20 0 11 -9 25 -20 32
-11 7 -20 19 -20 26 0 7 -4 11 -8 8 -12 -7 -11 27 0 35 5 3 -6 13 -24 22 l-33
17 32 0 c17 0 35 5 38 10 4 6 10 8 15 5 5 -3 11 -1 15 5 4 6 11 8 16 5 5 -4 9
-1 9 6 0 7 3 9 7 6 3 -4 13 -1 22 6 9 8 42 22 74 31 31 10 55 22 51 27 -3 5 2
9 10 9 9 0 16 5 16 12 0 6 3 8 7 5 3 -4 12 2 20 13 8 11 21 20 29 20 8 0 14 5
14 11 0 6 7 8 16 5 8 -3 12 -2 9 4 -3 5 6 15 20 22 16 7 21 14 14 19 -8 4 -4
9 10 14 11 3 21 13 21 21 0 8 4 13 9 10 5 -3 11 4 14 15 4 13 10 18 18 13 7
-4 10 -3 5 4 -3 6 -2 13 4 17 6 4 8 11 5 16 -4 5 -2 9 3 9 6 0 19 18 31 40 11
22 18 40 14 40 -4 0 2 7 13 16 10 8 13 13 7 9 -7 -3 -13 -2 -13 4 0 5 5 11 10
13 6 2 13 16 16 32 3 16 7 33 10 38 9 14 15 52 19 116 2 35 6 66 9 69 3 4 1
12 -5 20 -9 9 -8 13 0 13 8 0 9 6 2 18 -6 11 -6 24 0 35 6 9 7 22 4 27 -3 6
-2 10 4 10 6 0 6 11 1 31 -5 18 -7 36 -4 40 3 5 -1 9 -8 9 -14 0 -50 57 -40
63 4 2 2 2 -5 1 -12 -3 -63 50 -63 65 0 4 -10 13 -22 20 -17 8 -18 10 -4 6 17
-5 16 -2 -5 19 -32 33 -51 56 -44 56 9 0 -63 67 -80 73 -8 4 -15 13 -15 21 0
10 -6 13 -15 10 -9 -4 -15 0 -15 10 0 9 -6 15 -12 13 -7 -1 -12 4 -10 11 2 9
-4 11 -18 7 -12 -4 -20 -2 -20 5 0 6 -4 8 -10 5 -5 -3 -10 -2 -10 3 0 9 -17
13 -105 26 -16 3 -96 5 -177 6 -149 2 -218 16 -218 46 0 7 -5 16 -12 20 -7 5
-8 3 -3 -6 5 -9 4 -11 -3 -6 -7 4 -12 14 -12 23 0 9 -6 21 -14 27 -8 6 -26 32
-39 59 -19 39 -24 66 -27 155 -6 213 -6 264 1 268 3 2 4 16 1 30 -3 17 -1 25
6 20 6 -4 8 2 5 14 -3 13 0 20 8 20 11 0 11 2 -1 10 -11 7 -11 10 -2 10 7 0
11 4 7 9 -3 5 2 17 11 25 10 10 11 16 3 16 -9 0 -8 4 1 15 7 8 9 15 5 15 -4 0
-1 7 6 16 7 9 14 28 15 43 3 49 4 52 17 45 8 -5 8 -2 -2 9 -8 10 -9 17 -3 17
6 0 14 16 18 35 3 19 9 33 13 30 4 -2 8 8 8 24 0 15 7 42 16 59 8 18 11 30 6
26 -7 -4 -7 0 0 12 14 28 24 58 22 68 -1 4 5 19 14 32 9 14 13 29 10 34 -3 6
-2 10 4 10 6 0 8 7 5 15 -4 8 -2 21 3 28 6 6 13 21 15 32 3 11 9 29 14 39 6
15 4 18 -7 12 -8 -4 -5 0 5 8 15 12 16 16 5 16 -12 0 -12 2 1 10 10 6 11 10 3
10 -7 0 -13 5 -13 11 0 5 4 8 8 5 5 -3 9 1 9 9 0 8 -3 13 -5 10 -3 -3 -14 3
-25 12 -11 10 -17 12 -13 6 4 -8 1 -13 -8 -13 -9 0 -16 5 -16 10 0 6 -5 10
-11 10 -5 0 -7 -4 -4 -10 3 -5 0 -10 -8 -10 -8 0 -20 -6 -27 -14 -6 -8 -17
-13 -25 -10 -7 3 -16 1 -20 -5 -3 -6 -15 -11 -26 -11 -13 0 -18 -4 -13 -12 4
-6 3 -8 -3 -5 -6 4 -19 0 -29 -8 -10 -8 -23 -14 -29 -15 -5 0 -3 5 5 10 10 7
11 10 2 10 -7 0 -15 -7 -18 -15 -4 -8 -10 -13 -14 -10 -13 8 -40 -6 -33 -18 4
-6 0 -8 -10 -4 -10 3 -17 2 -17 -4 0 -6 -4 -7 -10 -4 -5 3 -10 -1 -10 -9 0
-10 -6 -13 -17 -9 -11 4 -14 3 -9 -5 5 -8 2 -10 -8 -6 -9 3 -16 1 -16 -5 0 -6
-9 -11 -19 -11 -11 0 -21 -3 -23 -7 -1 -5 -17 -15 -35 -24 -23 -13 -34 -14
-43 -5 -9 7 -11 7 -7 0 7 -13 -40 -37 -54 -29 -5 4 -9 0 -9 -8 0 -8 -9 -17
-20 -20 -13 -3 -18 -1 -13 6 8 13 -28 -12 -39 -28 -5 -6 -8 -5 -8 3 0 10 -3
10 -14 0 -8 -7 -11 -17 -8 -22 3 -5 -2 -7 -11 -3 -10 3 -17 2 -17 -4 0 -6 -4
-8 -9 -5 -5 4 -11 3 -13 -1 -1 -5 -18 -17 -37 -27 -23 -13 -31 -15 -26 -5 5 8
0 7 -12 -4 -11 -9 -23 -14 -26 -10 -4 3 -7 2 -7 -4 0 -5 -6 -10 -12 -10 -7 0
-39 -3 -70 -7 -38 -4 -58 -3 -58 4 0 7 -6 8 -19 0 -12 -6 -21 -6 -23 0 -2 5
-18 10 -35 12 -18 1 -33 6 -33 10 0 4 -9 8 -20 8 -11 0 -20 5 -20 11 0 5 -5 7
-10 4 -6 -4 -17 -2 -24 4 -8 7 -18 11 -22 10 -5 -1 -16 0 -24 3 -52 19 -101
30 -107 25 -3 -4 -12 -2 -20 4 -7 6 -13 9 -13 5 0 -3 -12 -1 -26 4 -18 7 -23
7 -18 -1 5 -8 1 -8 -14 0 -11 6 -34 11 -50 11 -16 0 -32 3 -36 7 -4 4 -15 8
-24 8 -10 0 -16 6 -14 15 3 12 1 13 -9 3 -17 -17 -33 -17 -26 0 3 9 -6 12 -34
10 -22 -1 -39 2 -39 8 0 5 -12 9 -26 9 -17 0 -23 4 -18 13 6 9 4 9 -8 -1 -10
-8 -19 -9 -22 -3 -3 5 -14 8 -24 6 -9 -1 -26 5 -36 14 -11 9 -16 10 -12 4 4
-7 2 -13 -3 -13 -6 0 -11 4 -11 9 0 5 -10 7 -22 3 -14 -3 -19 -1 -14 6 4 8 2
10 -7 6 -8 -3 -18 0 -22 5 -3 6 -10 9 -15 6 -5 -3 -11 -1 -14 4 -3 5 -15 7
-26 4 -12 -3 -20 0 -20 7 0 7 -8 10 -20 7 -11 -3 -20 -1 -20 4 0 4 -7 5 -17 2
-10 -4 -14 -2 -9 5 4 7 -1 10 -14 7 -11 -2 -20 1 -20 7 0 6 -7 5 -17 -3 -9 -8
-14 -9 -11 -4 4 6 -5 15 -18 22 -13 6 -22 7 -18 2 8 -14 -9 -11 -32 6 -12 8
-24 11 -28 7 -4 -3 -11 0 -16 8 -7 11 -10 11 -10 2 0 -9 -5 -10 -19 -3 -10 6
-21 7 -25 4 -3 -3 -6 -1 -6 5 0 7 -13 12 -30 12 -16 0 -30 4 -30 8 0 4 -8 8
-17 9 -45 3 -63 8 -63 16 0 5 -6 7 -12 4 -7 -2 -21 2 -30 11 -13 11 -18 12
-18 2 0 -9 -3 -10 -13 -1 -8 6 -17 8 -20 4 -4 -3 -7 2 -7 13 0 16 -2 17 -11 4
-7 -11 -12 -12 -15 -3 -3 7 -12 9 -20 6 -8 -3 -14 -1 -14 5 0 6 -10 8 -22 4
-12 -3 -19 -1 -15 4 3 6 -10 10 -30 11 -19 0 -39 7 -44 14 -6 10 -9 11 -9 2 0
-8 -14 -13 -35 -13 -19 0 -35 -5 -35 -10 0 -7 -6 -8 -17 -2 -11 7 -21 5 -31
-4 -12 -12 -17 -12 -30 -2 -11 9 -14 9 -9 1 6 -10 -25 -22 -73 -28 -3 0 -11
-4 -19 -9 -10 -7 -12 -5 -7 5 4 8 1 6 -7 -3 -16 -21 -31 -24 -22 -5 4 6 -1 3
-10 -8 -14 -17 -17 -18 -25 -5 -8 12 -10 12 -10 1 0 -7 -6 -11 -15 -7 -8 3
-15 2 -15 -3 0 -4 -6 -8 -12 -9 -46 -4 -128 -29 -121 -35 4 -5 -5 -6 -20 -3
-16 3 -25 1 -22 -5 6 -8 -11 -13 -42 -12 -7 0 -11 -4 -10 -11 1 -6 -4 -10 -12
-8 -7 1 -19 -2 -27 -9 -8 -6 -23 -9 -34 -6 -11 3 -20 2 -20 -3 0 -4 -11 -5
-25 -2 -14 2 -25 8 -25 11 0 4 -7 8 -15 9 -8 1 -22 3 -31 4 -10 1 -14 8 -11
20 4 15 2 17 -7 9 -16 -14 -26 -4 -19 17 4 15 3 15 -7 2 -9 -11 -13 -12 -17
-2 -2 6 -9 10 -14 6 -5 -3 -9 2 -9 10 0 9 -6 16 -13 16 -7 0 -23 9 -35 20 -12
11 -26 20 -33 20 -6 0 -8 7 -5 17 4 10 4 15 1 11 -4 -3 -15 1 -26 10 -19 17
-23 18 -55 21 -13 1 -14 4 -5 15 10 12 9 14 -7 10 -12 -4 -22 2 -30 18 -8 14
-10 15 -7 4 5 -18 4 -18 -21 -1 -15 9 -23 12 -20 6 10 -15 -7 -14 -22 1 -9 9
-12 9 -12 -1z m171 -78 c13 -16 12 -17 -3 -4 -10 7 -18 15 -18 17 0 8 8 3 21
-13z m3864 -1643 c-4 -6 16 -10 52 -10 57 0 140 -17 130 -26 -3 -3 -75 -6
-160 -7 -133 0 -157 2 -172 16 -15 16 -12 17 59 17 41 0 78 5 81 10 3 6 8 10
11 10 3 0 2 -4 -1 -10z m314 -159 c6 -10 7 -22 3 -26 -4 -5 -2 -5 4 -2 7 4 14
0 18 -8 6 -17 3 -17 -200 -20 -172 -2 -219 5 -220 31 -1 12 -4 26 -8 33 -5 8
46 11 193 11 185 0 201 -1 210 -19z m78 -155 c4 -4 8 -12 9 -19 1 -7 5 -20 9
-30 7 -16 -6 -17 -215 -15 -189 3 -223 5 -226 18 -1 8 -5 23 -9 32 -6 14 1 17
47 20 93 5 378 1 385 -6z m-29 -155 l72 -1 0 -40 0 -40 -77 -1 c-152 -1 -337
2 -341 5 -1 2 -5 20 -9 39 l-5 36 93 3 c52 2 117 2 144 1 28 -1 83 -2 123 -2z
m15 -179 c40 -2 45 -12 25 -55 l-13 -27 -167 0 c-153 0 -168 2 -168 18 0 9 -3
27 -6 39 -5 19 -2 22 33 25 38 3 224 3 296 0z m-63 -180 c0 -5 -11 -19 -26
-32 -24 -23 -32 -24 -140 -24 -63 1 -117 3 -120 6 -3 3 -2 17 2 32 l6 26 139
0 c76 0 139 -4 139 -8z m-240 -167 c-14 -7 -43 -17 -65 -21 -35 -6 -38 -5 -28
8 7 8 10 18 6 21 -3 4 20 7 53 7 56 -1 58 -2 34 -15z"/>
<path d="M6920 4471 c0 -6 4 -13 10 -16 6 -3 7 1 4 9 -7 18 -14 21 -14 7z"/>
<path d="M4455 1271 c-3 -5 -2 -12 3 -15 5 -3 9 1 9 9 0 17 -3 19 -12 6z"/>
</g>
</svg>
